<html>
<head>
<meta charset="UTF-8">
<meta name="viewport" content="width=device-width, initial-scale=1.0"/>

<style>
.comment
{
    padding-left: 20px;
    margin-top: 4px;
    margin-right: 4px;
    margin-bottom: 4px;
    border: 2px #000 solid;
}
.submission
{
    border: 4px #00f solid;
    padding-left: 20px;
}
.hidden
{
    display: none;
}
</style>
</head>
<body><div class="submission" id="t3_6oqmmo">
    <p class="userinfo">
        <a href="https://www.reddit.com/u/V2atX">V2atX</a>
        <span class="score"> | 29 points</span>
        <span class="timestamp"> | Jul 21 2017 20:30:33</span>
    </p>
    <strong>[TV] Star Trek: Enterprise S04 [1080p] BluRay FLAC [x264] [52.63GB]</strong>
    <p><p><a href="http://www.imdb.com/title/tt0244365/">Star Trek: Enterprise</a></p>
<p>Uploaded on request :)</p>
<p>Video: AVC H.264 @ 4452 - 8790 kb/s (6740 kb/s average) (CRF20, Film Preset, Ultralight Denoise)  </p>
<p>Audio: FLAC 5.1 @ 1086 - 1397 kb/s (1258 kb/s average) (lossless from DTS-HD MA source)  </p>
<p>Subs: UTF-8, non HI (manually checked, corrected and retimed where necessary)</p>
<p>Links protected by captcha: <br>
http://links.snahp.it/718ENTS04</p>
<p>Mirror on 1fichier included! Register a free account for faster downloading.<br>
I suggest using <a href="https://board.jdownloader.org/showthread.php?t=54725">JDownloader 2 for easier downloading.</a> (Copy + paste the link inside, as the redirect is broken.)</p>
<p><a href="https://www.reddit.com/r/megalinks/comments/6n9xs8/tv_star_trek_enterprise_s01_1080p_bluray_flac/">Season 01</a><br>
<a href="https://www.reddit.com/r/megalinks/comments/6nnfke/tv_star_trek_enterprise_s02_1080p_bluray_flac/">Season 02</a><br>
<a href="https://www.reddit.com/r/megalinks/comments/6oa86k/tv_star_trek_enterprise_s03_1080p_bluray_flac/">Season 03</a></p>
<p>Complete MediaInfo of a relatively average sized episode:</p>
<pre><code>General
Unique ID                                : 217521881491682784614200392976763242191 (0xA3A530C56C29425094391627294CC6CF)
Complete name                            : Star Trek- Enterprise - S04E15 - Affliction (1).mkv
Format                                   : Matroska
Format version                           : Version 4 / Version 2
File size                                : 2.37 GiB
Duration                                 : 42 min 49 s
Overall bit rate mode                    : Variable
Overall bit rate                         : 7 912 kb/s
Encoded date                             : UTC 2017-07-20 11:39:52
Writing application                      : mkvmerge v10.0.0 ('To Drown In You') 64bit
Writing library                          : libebml v1.3.4 + libmatroska v1.4.5

Video
ID                                       : 1
Format                                   : AVC
Format/Info                              : Advanced Video Codec
Format profile                           : High@L4.1
Format settings, CABAC                   : Yes
Format settings, RefFrames               : 4 frames
Codec ID                                 : V_MPEG4/ISO/AVC
Duration                                 : 42 min 49 s
Bit rate                                 : 6 735 kb/s
Width                                    : 1 920 pixels
Height                                   : 1 080 pixels
Display aspect ratio                     : 16:9
Frame rate mode                          : Constant
Frame rate                               : 23.976 FPS
Color space                              : YUV
Chroma subsampling                       : 4:2:0
Bit depth                                : 8 bits
Scan type                                : Progressive
Bits/(Pixel*Frame)                       : 0.135
Stream size                              : 2.01 GiB (85%)
Writing library                          : x264 core 142 r2479 dd79a61
Encoding settings                        : cabac=1 / ref=4 / deblock=1:-1:-1 / analyse=0x3:0x133 / me=umh / subme=10 / psy=1 / psy_rd=1.00:0.15 / mixed_ref=1 / me_range=24 / chroma_me=1 / trellis=2 / 8x8dct=1 / cqm=0 / deadzone=21,11 / fast_pskip=1 / chroma_qp_offset=-3 / threads=12 / lookahead_threads=2 / sliced_threads=0 / nr=0 / decimate=1 / interlaced=0 / bluray_compat=0 / constrained_intra=0 / bframes=8 / b_pyramid=2 / b_adapt=2 / b_bias=0 / direct=3 / weightb=1 / open_gop=0 / weightp=2 / keyint=240 / keyint_min=24 / scenecut=40 / intra_refresh=0 / rc_lookahead=60 / rc=crf / mbtree=1 / crf=20.0 / qcomp=0.60 / qpmin=0 / qpmax=69 / qpstep=4 / vbv_maxrate=62500 / vbv_bufsize=78125 / crf_max=0.0 / nal_hrd=none / filler=0 / ip_ratio=1.40 / aq=1:1.00
Default                                  : Yes
Forced                                   : No
Color range                              : Limited
Color primaries                          : BT.709
Transfer characteristics                 : BT.709
Matrix coefficients                      : BT.709

Audio
ID                                       : 2
Format                                   : FLAC
Format/Info                              : Free Lossless Audio Codec
Codec ID                                 : A_FLAC
Duration                                 : 42 min 48 s
Bit rate mode                            : Variable
Bit rate                                 : 1 176 kb/s
Channel(s)                               : 6 channels
Channel positions                        : Front: L C R, Side: L R, LFE
Sampling rate                            : 48.0 kHz
Frame rate                               : 11.719 FPS (4096 SPF)
Bit depth                                : 24 bits
Delay relative to video                  : -83 ms
Stream size                              : 360 MiB (15%)
Writing library                          : libFLAC 1.2.1 (UTC 2007-09-17)
Language                                 : English
Default                                  : Yes
Forced                                   : No

Text
ID                                       : 3
Format                                   : UTF-8
Codec ID                                 : S_TEXT/UTF8
Codec ID/Info                            : UTF-8 Plain Text
Duration                                 : 40 min 28 s
Bit rate                                 : 73 b/s
Count of elements                        : 555
Stream size                              : 21.9 KiB (0%)
Language                                 : English
Default                                  : Yes
Forced                                   : No

Menu
00:00:00.000                             : :Chapter 1
00:02:20.574                             : :Chapter 2
00:13:32.245                             : :Chapter 3
00:23:45.524                             : :Chapter 4
00:32:46.064                             : :Chapter 5
00:41:56.948                             : :Chapter 6
</code></pre></p>
    <p class="toolbar">
        <a href="https://www.reddit.com/r/megalinks/comments/6oqmmo">permalink</a>
    </p>
</div>
<div class="comment" id="t1_dkjevjd">
    <p class="userinfo">
        <a
        class="toggle_hide_button"
        href="javascript:void(0)"
        onclick="toggle_collapse(this.parentElement.parentElement)">[-]
        </a>
        <a href="https://www.reddit.com/u/montr2229">montr2229</a>
        <span class="score"> | 3 points</span>
        <span class="timestamp"> | Jul 21 2017 20:36:22</span>
    </p>
    <div class="collapsible">
        <p>Thanks, you awesome</p>
        <p class="toolbar">
            <a href="https://www.reddit.com/r/megalinks/comments/6oqmmo/_/dkjevjd">permalink</a>
        </p>
        
    </div>
</div>

<div class="comment" id="t1_dkjqg4g">
    <p class="userinfo">
        <a
        class="toggle_hide_button"
        href="javascript:void(0)"
        onclick="toggle_collapse(this.parentElement.parentElement)">[-]
        </a>
        <a href="https://www.reddit.com/u/buck-yar">buck-yar</a>
        <span class="score"> | 3 points</span>
        <span class="timestamp"> | Jul 22 2017 00:33:10</span>
    </p>
    <div class="collapsible">
        <p>Thank you, much appreciated</p>
        <p class="toolbar">
            <a href="https://www.reddit.com/r/megalinks/comments/6oqmmo/_/dkjqg4g">permalink</a>
        </p>
        
    </div>
</div>

<div class="comment" id="t1_dkjzdto">
    <p class="userinfo">
        <a
        class="toggle_hide_button"
        href="javascript:void(0)"
        onclick="toggle_collapse(this.parentElement.parentElement)">[-]
        </a>
        <a href="https://www.reddit.com/u/jared213">jared213</a>
        <span class="score"> | 2 points</span>
        <span class="timestamp"> | Jul 22 2017 04:09:32</span>
    </p>
    <div class="collapsible">
        <p>You're the best!</p>
        <p class="toolbar">
            <a href="https://www.reddit.com/r/megalinks/comments/6oqmmo/_/dkjzdto">permalink</a>
        </p>
        
    </div>
</div>
</body>

<script>
function toggle_collapse(comment_div)
{
    var button = comment_div.getElementsByClassName("toggle_hide_button")[0];
    var collapsible = comment_div.getElementsByClassName("collapsible")[0];
    if (collapsible.classList.contains("hidden"))
    {
        collapsible.classList.remove("hidden");
        button.innerText = "[-]";
    }
    else
    {
        collapsible.classList.add("hidden");
        button.innerText = "[+]";
    }
}
</script>
</html>
